# xmcd
#
# Track frame offsets: 
#        150
#        30128
#        42887
#        56461
#        69393
#        82278
#        95305
#        106640
#        119466
#        141826
#        156129
#        167803
#        183669
#        197020
#        210138
#        223724
#        238168
#        250009
#        260632
#        275369
#        288857
#        303668
#        316152
#
# Disc length: 4399 seconds
#
# Revision: 2
# Processed by: cddbd v1.5.2PL0 Copyright (c) Steve Scherf et al.
# Submitted via: ExactAudioCopyFreeDBPlugin 1.0
#
DISCID=42112d17
DTITLE=Various Artist - The Roots of Muddy Waters
DYEAR=2000
DGENRE=Blues
TTITLE0=Walking Blues - Son House
TTITLE1=Catfish Blues - Robert Petway
TTITLE2=Roll And Tumble Blues - Hambone Willie  Newbern
TTITLE3=32-20 Blues - Robert Johnson
TTITLE4=Big Leg Woman - Johnny Temple
TTITLE5=Bumble Bee Blues - Memphis Minnie
TTITLE6=I Done Got Wise - Big Bill Broonzy
TTITLE7=Kind Hearted Woman - Robert Johnson
TTITLE8=Caldonia - Louis Jordan
TTITLE9=Goin' Down Slow - St Louis Jimmy Oden
TTITLE10=Mean Old Frisco' - Arthur Crudup
TTITLE11=Blues Before Sunrise - Leroy Carr
TTITLE12=Soon Forgotten - Louis Jimmy Oden
TTITLE13=Diggin My Potatoes - Washboard Sam
TTITLE14=Stormy Monday - T-Bone Walker
TTITLE15=We're Gonna Move To The Outskirts of Town - Will Weldon
TTITLE16=Piney Brown - Joe Turner
TTITLE17=Going Back To Memphis - Memphis Jug Band
TTITLE18=Trouble In Mind - Bertha Hill
TTITLE19=Someday Baby - Sleepy John Estes
TTITLE20=Corrina, Corrina - Bo Carter
TTITLE21=I Can't Be Satisfied - Big Buill Broonzy
TTITLE22=Lead Pencil Blues - Johnny Temple
EXTD=
EXTT0=
EXTT1=
EXTT2=
EXTT3=
EXTT4=
EXTT5=
EXTT6=
EXTT7=
EXTT8=
EXTT9=
EXTT10=
EXTT11=
EXTT12=
EXTT13=
EXTT14=
EXTT15=
EXTT16=
EXTT17=
EXTT18=
EXTT19=
EXTT20=
EXTT21=
EXTT22=
PLAYORDER=
